<svg xmlns="http://www.w3.org/2000/svg" viewBox="0 0 19.978 19.875">
  <defs>
    <style>
      .cls-1 {
        fill: #327669;
      }
    </style>
  </defs>
  <g id="phone" transform="translate(-0.016 0)">
    <g id="Group_6" data-name="Group 6" transform="translate(0.016 0)">
      <path id="Path_9" data-name="Path 9" class="cls-1" d="M15.248,57.4a1.411,1.411,0,0,0-2.124,0c-.5.489-.993.978-1.481,1.475a.294.294,0,0,1-.409.075c-.321-.177-.663-.315-.972-.506a15.363,15.363,0,0,1-3.713-3.354,8.728,8.728,0,0,1-1.333-2.118.3.3,0,0,1,.076-.389c.5-.477.977-.966,1.468-1.454a1.395,1.395,0,0,0,0-2.159c-.388-.389-.776-.77-1.164-1.16s-.8-.8-1.2-1.193a1.42,1.42,0,0,0-2.124,0c-.5.489-.977.99-1.489,1.471a2.394,2.394,0,0,0-.759,1.62,6.822,6.822,0,0,0,.533,2.954,17.927,17.927,0,0,0,3.208,5.308,19.833,19.833,0,0,0,6.576,5.108,9.557,9.557,0,0,0,3.643,1.052,2.676,2.676,0,0,0,2.29-.866c.426-.472.905-.9,1.356-1.355a1.406,1.406,0,0,0,.008-2.146Q16.441,58.576,15.248,57.4Z" transform="translate(-0.016 -44.274)"/>
      <path id="Path_10" data-name="Path 10" class="cls-1" d="M242.233,101.745l1.49-.258A6.691,6.691,0,0,0,238.066,96l-.21,1.5a5.171,5.171,0,0,1,4.379,4.246Z" transform="translate(-227.848 -91.994)"/>
      <path id="Path_11" data-name="Path 11" class="cls-1" d="M249.267,3.143A10.991,10.991,0,0,0,242.966,0l-.21,1.5a9.591,9.591,0,0,1,8.115,7.865l1.49-.258a11.072,11.072,0,0,0-3.1-5.963Z" transform="translate(-232.384 0)"/>
    </g>
  </g>
</svg>
