<svg xmlns="http://www.w3.org/2000/svg" viewBox="0 0 70.857 77.272">
  <defs>
    <style>
      .cls-1 {
        fill: #e4eaf6;
      }

      .cls-2 {
        fill: #e6af78;
      }

      .cls-3 {
        fill: #707487;
      }

      .cls-4 {
        fill: #d29b6e;
      }

      .cls-5 {
        fill: #f0c087;
      }

      .cls-6 {
        fill: #5b5d6e;
      }

      .cls-7 {
        fill: #515262;
      }

      .cls-8 {
        fill: #785550;
      }

      .cls-9 {
        fill: #694b4b;
      }

      .cls-10 {
        fill: #5a4146;
      }

      .cls-11 {
        fill: #eff2fa;
      }
    </style>
  </defs>
  <g id="collaboration" transform="translate(-21.253 0)">
    <path id="Path_249" data-name="Path 249" class="cls-1" d="M180.926,240.951V228.285h-2.674v12.666L165.22,249.91l1.514,2.2,12.855-8.838,12.855,8.838,1.514-2.2Z" transform="translate(-122.239 -193.832)"/>
    <path id="Path_250" data-name="Path 250" class="cls-2" d="M234.74,143.339V139.02H223.633v4.319l5.553,4.936Z" transform="translate(-171.837 -118.039)"/>
    <path id="Path_251" data-name="Path 251" class="cls-3" d="M184.31,169.212l-7.635-1.8a1.224,1.224,0,0,1-.321-.129l-6.184,3.607-5.943-3.782a1.228,1.228,0,0,1-.562.3l-7.635,1.8a2.468,2.468,0,0,0-1.9,2.4v4.833a1.234,1.234,0,0,0,1.234,1.234h29.618a1.234,1.234,0,0,0,1.234-1.234v-4.833A2.468,2.468,0,0,0,184.31,169.212Z" transform="translate(-112.821 -141.891)"/>
    <path id="Path_252" data-name="Path 252" class="cls-4" d="M223.633,139.02v4.557c7,2.52,11.107-3.788,11.107-3.788v-.77Z" transform="translate(-171.837 -118.039)"/>
    <path id="Path_253" data-name="Path 253" class="cls-5" d="M207.28,44.985l.538,11.829a3.7,3.7,0,0,0,1.477,2.794l2.551,1.914a3.7,3.7,0,0,0,2.221.74h2.468a3.7,3.7,0,0,0,2.221-.74l2.551-1.914a3.7,3.7,0,0,0,1.477-2.794l.538-11.829Z" transform="translate(-157.952 -38.195)"/>
    <path id="Path_254" data-name="Path 254" class="cls-2" d="M213.45,47.453c2.468,0,6.17-.617,7.049-2.468H207.28l.538,11.829a3.7,3.7,0,0,0,1.477,2.794l2.551,1.914a3.7,3.7,0,0,0,2.221.74H215.3c-1.234,0-3.7-2.468-3.7-5.553V49.3A1.97,1.97,0,0,1,213.45,47.453Z" transform="translate(-157.952 -38.195)"/>
    <g id="Group_240" data-name="Group 240" transform="translate(41.307 28.194)">
      <path id="Path_255" data-name="Path 255" class="cls-6" d="M330.957,190.4l4-3.592a2.464,2.464,0,0,1,.532,1.53v4.833a1.234,1.234,0,0,1-1.234,1.234h-4.319V192.7A3.086,3.086,0,0,1,330.957,190.4Z" transform="translate(-303.401 -186.81)"/>
      <path id="Path_256" data-name="Path 256" class="cls-6" d="M158.659,190.4l-4-3.592a2.464,2.464,0,0,0-.532,1.53v4.833a1.234,1.234,0,0,0,1.234,1.234h4.319V192.7A3.085,3.085,0,0,0,158.659,190.4Z" transform="translate(-154.129 -186.81)"/>
      <path id="Path_257" data-name="Path 257" class="cls-6" d="M253.293,205.9h-3.085l.386-5.553h2.314Z" transform="translate(-235.708 -198.304)"/>
    </g>
    <path id="Path_258" data-name="Path 258" class="cls-7" d="M253.293,192.17h-3.085v.356a1.5,1.5,0,0,0,1.495,1.495h.1a1.5,1.5,0,0,0,1.495-1.495v-.356Z" transform="translate(-194.401 -163.167)"/>
    <g id="Group_241" data-name="Group 241" transform="translate(49.945 23.768)">
      <path id="Path_259" data-name="Path 259" class="cls-6" d="M213.133,157.645l5.64,5.076a21.282,21.282,0,0,0-3.529,2.4.792.792,0,0,1-1.226-.277l-2.65-5.829.838-1.257A.617.617,0,0,1,213.133,157.645Z" transform="translate(-211.368 -157.487)"/>
      <path id="Path_260" data-name="Path 260" class="cls-6" d="M266.07,157.645l-5.64,5.076a21.281,21.281,0,0,1,3.529,2.4.792.792,0,0,0,1.226-.277l2.65-5.829L267,157.762A.617.617,0,0,0,266.07,157.645Z" transform="translate(-253.026 -157.487)"/>
    </g>
    <path id="Path_261" data-name="Path 261" class="cls-8" d="M285.216,15.742l.578,4.088c2.641.528,3.021,4.672,3.076,5.856a1.218,1.218,0,0,0,.2.6l1.008,1.563a5.911,5.911,0,0,1,1.234-4.319S291.849,13.274,285.216,15.742Z" transform="translate(-224.125 -13.041)"/>
    <path id="Path_262" data-name="Path 262" class="cls-5" d="M307.329,87.458l-.7,2.787a.742.742,0,0,1-.72.562h0a.742.742,0,0,1-.736-.65l-.356-2.851a1.277,1.277,0,0,1,1.267-1.436h0A1.277,1.277,0,0,1,307.329,87.458Z" transform="translate(-240.762 -72.911)"/>
    <path id="Path_263" data-name="Path 263" class="cls-9" d="M197.135,1.6l.913.623c-4.126,3.047-3.355,8.272-3.355,8.272,1.234,1.234,1.234,4.319,1.234,4.319l1.234-1.234s-.476-3.565,1.851-4.936c2.16-1.273,4.049-.617,5.978-.617,5.168,0,6.614-1.947,6.363-4.319-.13-1.227-2.006-3.783-6.787-3.7A20.776,20.776,0,0,0,197.135,1.6Z" transform="translate(-147.216)"/>
    <path id="Path_264" data-name="Path 264" class="cls-10" d="M196.775,19.969a6.778,6.778,0,0,1,1.273-5.264c-4.126,3.047-3.355,8.272-3.355,8.272,1.234,1.234,1.234,4.319,1.234,4.319l1.234-1.234s-.476-3.565,1.851-4.936c2.16-1.273,4.049-.617,5.978-.617a15.164,15.164,0,0,0,2.225-.153C203.235,20.49,200.889,17.475,196.775,19.969Z" transform="translate(-147.216 -12.485)"/>
    <path id="Path_265" data-name="Path 265" class="cls-2" d="M199.141,87.458l.7,2.787a.742.742,0,0,0,.72.562h0a.742.742,0,0,0,.736-.65l.356-2.851a1.277,1.277,0,0,0-1.267-1.436h0A1.277,1.277,0,0,0,199.141,87.458Z" transform="translate(-151.008 -72.911)"/>
    <path id="Path_266" data-name="Path 266" class="cls-6" d="M285.191,228.967h-3.085a1.234,1.234,0,0,0-1.234,1.234h5.553A1.234,1.234,0,0,0,285.191,228.967Z" transform="translate(-220.437 -194.411)"/>
    <path id="Path_267" data-name="Path 267" class="cls-2" d="M101.865,417.948v-4.319H90.758v4.319l5.553,4.936Z" transform="translate(-59.015 -351.203)"/>
    <path id="Path_268" data-name="Path 268" class="cls-11" d="M51.436,443.822l-7.635-1.8a1.22,1.22,0,0,1-.321-.129L37.3,445.5l-5.943-3.782a1.228,1.228,0,0,1-.562.3l-7.635,1.8a2.468,2.468,0,0,0-1.9,2.4v4.833a1.234,1.234,0,0,0,1.234,1.234H52.1a1.234,1.234,0,0,0,1.234-1.234v-4.833A2.468,2.468,0,0,0,51.436,443.822Z" transform="translate(0 -375.056)"/>
    <path id="Path_269" data-name="Path 269" class="cls-4" d="M90.758,413.629v4.557c7,2.52,11.107-3.788,11.107-3.788v-.77Z" transform="translate(-59.015 -351.203)"/>
    <path id="Path_270" data-name="Path 270" class="cls-5" d="M74.4,319.595l.538,11.829a3.7,3.7,0,0,0,1.477,2.794l2.551,1.914a3.7,3.7,0,0,0,2.221.74H83.66a3.7,3.7,0,0,0,2.221-.74l2.551-1.914a3.7,3.7,0,0,0,1.477-2.794l.538-11.829Z" transform="translate(-45.129 -271.361)"/>
    <path id="Path_271" data-name="Path 271" class="cls-2" d="M80.574,322.062c2.468,0,6.17-.617,7.048-2.468H74.4l.538,11.829a3.7,3.7,0,0,0,1.477,2.794l2.551,1.914a3.7,3.7,0,0,0,2.221.74h1.234c-1.234,0-3.7-2.468-3.7-5.553v-7.4A1.97,1.97,0,0,1,80.574,322.062Z" transform="translate(-45.129 -271.36)"/>
    <g id="Group_242" data-name="Group 242" transform="translate(21.253 69.638)">
      <path id="Path_272" data-name="Path 272" class="cls-1" d="M198.081,465.011l4-3.592a2.464,2.464,0,0,1,.532,1.53v4.833a1.234,1.234,0,0,1-1.234,1.234h-4.319v-1.709A3.086,3.086,0,0,1,198.081,465.011Z" transform="translate(-170.526 -461.419)"/>
      <path id="Path_273" data-name="Path 273" class="cls-1" d="M25.784,465.011l-4-3.592a2.464,2.464,0,0,0-.532,1.53v4.833a1.234,1.234,0,0,0,1.234,1.234h4.319v-1.709A3.085,3.085,0,0,0,25.784,465.011Z" transform="translate(-21.254 -461.419)"/>
    </g>
    <path id="Path_274" data-name="Path 274" class="cls-6" d="M120.418,480.509h-3.085l.386-5.553h2.314Z" transform="translate(-81.58 -403.275)"/>
    <path id="Path_275" data-name="Path 275" class="cls-7" d="M120.418,466.78h-3.085v.356a1.5,1.5,0,0,0,1.495,1.495h.1a1.5,1.5,0,0,0,1.495-1.495v-.356Z" transform="translate(-81.58 -396.333)"/>
    <g id="Group_243" data-name="Group 243" transform="translate(29.892 65.213)">
      <path id="Path_276" data-name="Path 276" class="cls-1" d="M80.257,432.254l5.64,5.076a21.282,21.282,0,0,0-3.529,2.4.792.792,0,0,1-1.226-.277l-2.65-5.829.838-1.257A.617.617,0,0,1,80.257,432.254Z" transform="translate(-78.492 -432.096)"/>
      <path id="Path_277" data-name="Path 277" class="cls-1" d="M133.195,432.254l-5.64,5.076a21.282,21.282,0,0,1,3.529,2.4.792.792,0,0,0,1.226-.277l2.65-5.829-.838-1.257A.617.617,0,0,0,133.195,432.254Z" transform="translate(-120.15 -432.096)"/>
    </g>
    <path id="Path_278" data-name="Path 278" class="cls-8" d="M152.341,290.351l.578,4.088c2.641.528,3.021,4.672,3.076,5.856a1.218,1.218,0,0,0,.195.6l1.008,1.563a5.911,5.911,0,0,1,1.234-4.319S158.974,287.883,152.341,290.351Z" transform="translate(-111.304 -246.205)"/>
    <path id="Path_279" data-name="Path 279" class="cls-5" d="M174.453,362.066l-.7,2.787a.742.742,0,0,1-.72.562h0a.742.742,0,0,1-.736-.65l-.356-2.851a1.277,1.277,0,0,1,1.267-1.436h0A1.277,1.277,0,0,1,174.453,362.066Z" transform="translate(-127.94 -306.075)"/>
    <path id="Path_280" data-name="Path 280" class="cls-9" d="M64.26,276.205l.913.623c-4.126,3.047-3.355,8.272-3.355,8.272,1.234,1.234,1.234,4.319,1.234,4.319l1.234-1.234s-.476-3.565,1.851-4.936c2.16-1.273,4.049-.617,5.978-.617,5.168,0,6.614-1.947,6.363-4.319-.13-1.227-2.006-3.783-6.787-3.7A20.776,20.776,0,0,0,64.26,276.205Z" transform="translate(-34.394 -233.165)"/>
    <path id="Path_281" data-name="Path 281" class="cls-10" d="M63.9,294.577a6.778,6.778,0,0,1,1.273-5.264c-4.126,3.047-3.355,8.272-3.355,8.272,1.234,1.234,1.234,4.319,1.234,4.319l1.234-1.234s-.476-3.565,1.851-4.936c2.16-1.273,4.049-.617,5.978-.617a15.164,15.164,0,0,0,2.225-.153C70.36,295.1,68.014,292.083,63.9,294.577Z" transform="translate(-34.394 -245.649)"/>
    <path id="Path_282" data-name="Path 282" class="cls-2" d="M66.266,362.067l.7,2.787a.742.742,0,0,0,.72.562h0a.742.742,0,0,0,.736-.65l.356-2.851a1.277,1.277,0,0,0-1.267-1.436h0A1.277,1.277,0,0,0,66.266,362.067Z" transform="translate(-38.186 -306.076)"/>
    <path id="Path_283" data-name="Path 283" class="cls-1" d="M152.316,503.575h-3.085A1.234,1.234,0,0,0,148,504.809h5.553A1.234,1.234,0,0,0,152.316,503.575Z" transform="translate(-107.616 -427.575)"/>
    <path id="Path_284" data-name="Path 284" class="cls-9" d="M339.814,277.513c-12.448,0-11.068,15.137-11.011,26.107a1.171,1.171,0,0,0,.574,1,21.01,21.01,0,0,0,20.873,0,1.172,1.172,0,0,0,.574-1C350.882,292.65,352.262,277.513,339.814,277.513Z" transform="translate(-261.074 -235.63)"/>
    <path id="Path_285" data-name="Path 285" class="cls-10" d="M339.017,277.72c-11.577.649-10.264,15.35-10.209,26.076a1.171,1.171,0,0,0,.574,1,20.632,20.632,0,0,0,10.437,2.776l3.146-22.02" transform="translate(-261.078 -235.806)"/>
    <path id="Path_286" data-name="Path 286" class="cls-9" d="M359.579,277.513c-7.078,0-7.569,8.552-7.569,8.552,4.08-.688,6.586,1.032,10.715-.688l-3.146,22.02a20.631,20.631,0,0,0,10.437-2.776,1.172,1.172,0,0,0,.574-1C370.647,292.65,372.027,277.513,359.579,277.513Z" transform="translate(-280.839 -235.63)"/>
    <path id="Path_287" data-name="Path 287" class="cls-8" d="M437.414,308.427c.049-9.426,1.066-21.92-6.544-25.252a6.988,6.988,0,0,0,.252,3.864c1.573,3.146,3.146,3.146,4.718,5.5,1.573,8.651-3.005,17.832-4.526,19.082h0a19.778,19.778,0,0,0,5.526-2.2A1.172,1.172,0,0,0,437.414,308.427Z" transform="translate(-347.663 -240.438)"/>
    <path id="Path_288" data-name="Path 288" class="cls-2" d="M338.867,431l-7.017-2.924a1.573,1.573,0,0,1-.968-1.452v-1.9h-7.864v1.9a1.573,1.573,0,0,1-.968,1.452L315.033,431a2.359,2.359,0,0,0-1.452,2.178v3.146a1.573,1.573,0,0,0,1.573,1.573h23.592a1.573,1.573,0,0,0,1.573-1.573v-3.146A2.359,2.359,0,0,0,338.867,431Z" transform="translate(-248.21 -360.62)"/>
    <path id="Path_289" data-name="Path 289" class="cls-11" d="M338.866,450.4l-6.785-2.827-5.132,2.215-5.132-2.215-6.785,2.827a2.359,2.359,0,0,0-1.452,2.178v3.146a1.573,1.573,0,0,0,1.573,1.573h23.592a1.573,1.573,0,0,0,1.573-1.573v-3.146A2.359,2.359,0,0,0,338.866,450.4Z" transform="translate(-248.209 -380.024)"/>
    <path id="Path_290" data-name="Path 290" class="cls-4" d="M372.361,424.718H364.5v1.9a1.573,1.573,0,0,1-.968,1.452l-1.1.457C370.82,430.665,372.361,424.718,372.361,424.718Z" transform="translate(-289.689 -360.619)"/>
    <g id="Group_244" data-name="Group 244" transform="translate(65.371 66.262)">
      <path id="Path_291" data-name="Path 291" class="cls-1" d="M317.413,472.336l-3.157-2.511a2.354,2.354,0,0,0-.676,1.646v3.146a1.573,1.573,0,0,0,1.573,1.573H318.3v-2.012A2.36,2.36,0,0,0,317.413,472.336Z" transform="translate(-313.58 -465.18)"/>
      <path id="Path_292" data-name="Path 292" class="cls-1" d="M464.2,474.671v-3.146a2.354,2.354,0,0,0-.666-1.637l-3.167,2.5a2.359,2.359,0,0,0-.885,1.842v2.012h3.146A1.573,1.573,0,0,0,464.2,474.671Z" transform="translate(-437.463 -465.235)"/>
      <path id="Path_293" data-name="Path 293" class="cls-1" d="M397.857,468.2h-.236a.668.668,0,0,1-.668-.668v-5.265h1.573v5.265A.669.669,0,0,1,397.857,468.2Z" transform="translate(-384.37 -458.759)"/>
      <path id="Path_294" data-name="Path 294" class="cls-1" d="M366.769,442.55l-4.5-3.376a.629.629,0,0,0-.9.154l-.889,1.334,2.76,3.863a.629.629,0,0,0,.9.126Z" transform="translate(-353.4 -439.049)"/>
      <path id="Path_295" data-name="Path 295" class="cls-1" d="M402.164,442.55l4.5-3.376a.629.629,0,0,1,.9.154l.889,1.334-2.76,3.863a.629.629,0,0,1-.9.126Z" transform="translate(-388.795 -439.049)"/>
    </g>
    <path id="Path_296" data-name="Path 296" class="cls-5" d="M362.681,324.41c-3.932,3.932-11.649.786-11.649,7.078l.488,4.634a3.146,3.146,0,0,0,1.6,2.465l4.478,2.487a2.359,2.359,0,0,0,2.291,0l4.478-2.487a3.145,3.145,0,0,0,1.6-2.465l.564-5.5a8.686,8.686,0,0,0,.035-1.177C366.282,327.439,363.467,325.983,362.681,324.41Z" transform="translate(-280.008 -275.449)"/>
    <path id="Path_297" data-name="Path 297" class="cls-2" d="M351.032,331.489l.488,4.634a3.146,3.146,0,0,0,1.6,2.465l4.478,2.487a2.35,2.35,0,0,0,1.6.239h0s-2.257-.684-3.6-4.321c-.412-1.114-.983-7.012-.492-7.733.971-1.425,6.39-1.573,7.99-4.216q-.119-.147-.219-.295l-.017-.024a3,3,0,0,1-.185-.315C358.749,328.343,351.032,325.2,351.032,331.489Z" transform="translate(-280.008 -275.45)"/>
    <path id="Path_298" data-name="Path 298" class="cls-1" d="M421.179,501.577h-2.045a1.337,1.337,0,0,0-1.337,1.337v.236h4.718v-.236A1.337,1.337,0,0,0,421.179,501.577Z" transform="translate(-336.697 -425.878)"/>
  </g>
</svg>
