<svg xmlns="http://www.w3.org/2000/svg" viewBox="0 0 14.857 20">
  <defs>
    <style>
      .cls-1 {
        fill: #aeaeae;
      }
    </style>
  </defs>
  <g id="password" transform="translate(0 0)">
    <path id="Path_29" data-name="Path 29" class="cls-1" d="M12.029,5.13H10.922V1.361A1.361,1.361,0,0,0,9.562,0H5.27a1.361,1.361,0,0,0-1.359,1.36V5.13H2.829A2.833,2.833,0,0,0,0,7.961V17.17A2.833,2.833,0,0,0,2.829,20h9.2a2.833,2.833,0,0,0,2.828-2.831V7.961A2.833,2.833,0,0,0,12.029,5.13ZM5.083,1.361a.188.188,0,0,1,.188-.188H9.562a.188.188,0,0,1,.188.188V5.13H5.083ZM9.859,13.668a2.957,2.957,0,0,1-.987.895v1.289a.586.586,0,0,1-.586.586H6.571a.586.586,0,0,1-.586-.586V14.563A2.965,2.965,0,0,1,7.421,9.009h.007a2.965,2.965,0,0,1,2.431,4.659Zm0,0"/>
    <path id="Path_30" data-name="Path 30" class="cls-1" d="M146.137,260.629h-.005a1.793,1.793,0,0,0-.64,3.465.586.586,0,0,1,.374.546v1.073h.544V264.64a.586.586,0,0,1,.374-.546,1.793,1.793,0,0,0-.646-3.465Zm0,0" transform="translate(-138.709 -250.448)"/>
  </g>
</svg>
