<svg height="438pt" viewBox="1 -3 438.566 438" width="438pt" xmlns="http://www.w3.org/2000/svg"><path d="m29.761719 52.371094h208.339843c16.4375 0 29.761719 13.324218 29.761719 29.761718v282.746094c0 16.4375-13.324219 29.761719-29.761719 29.761719h-208.339843c-16.4375 0-29.761719-13.324219-29.761719-29.761719v-282.746094c0-16.4375 13.324219-29.761718 29.761719-29.761718zm0 0" fill="#c2d197"/><path d="m200.898438 52.371094v29.761718c0 4.109376-3.332032 7.441407-7.441407 7.441407h-44.644531v-7.441407c0-4.109374-3.328125-7.441406-7.4375-7.441406h-29.765625c-4.109375 0-7.441406 3.332032-7.441406 7.441406v7.441407h-44.640625c-4.109375 0-7.441406-3.332031-7.441406-7.441407v-29.761718h-14.882813v29.761718c0 12.328126 9.996094 22.324219 22.324219 22.324219h52.082031c4.109375 0 7.441406-3.332031 7.441406-7.441406v-7.441406h14.882813v7.441406c0 4.109375 3.328125 7.441406 7.4375 7.441406h52.085937c12.328125 0 22.320313-9.996093 22.320313-22.324219v-29.761718zm0 0" fill="#649454"/><path d="m191.515625 391.503906-5.5 3.140625h52.085937c16.4375 0 29.761719-13.328125 29.761719-29.765625v-44.644531c-19.570312 29.359375-45.710937 53.761719-76.347656 71.269531zm0 0" fill="#649454"/><path d="m267.863281 320.234375h-81.847656v74.40625l5.5-3.140625c30.632813-17.507812 56.773437-41.90625 76.347656-71.265625zm0 0" fill="#9cb16a"/><path d="m200.898438 97.015625h-52.085938c-4.109375 0-7.4375-3.332031-7.4375-7.441406v-7.441407h-14.882812v7.441407c0 4.109375-3.332032 7.441406-7.441407 7.441406h-52.085937c-12.328125 0-22.320313-9.996094-22.320313-22.324219v-44.640625c0-12.328125 9.992188-22.324219 22.320313-22.324219h22.324218c4.109376 0 7.4375 3.332032 7.4375 7.441407s-3.328124 7.441406-7.4375 7.441406h-22.324218c-4.109375 0-7.4375 3.328125-7.4375 7.4375v44.644531c0 4.109375 3.328125 7.441406 7.4375 7.441406h44.644531v-7.441406c0-4.105468 3.332031-7.4375 7.441406-7.4375h29.761719c4.109375 0 7.441406 3.332032 7.441406 7.4375v7.441406h44.644532c4.109374 0 7.4375-3.332031 7.4375-7.441406v-44.640625c0-4.109375-3.328126-7.441406-7.4375-7.441406h-22.324219c-4.109375 0-7.4375-3.332031-7.4375-7.441406s3.328125-7.441407 7.4375-7.441407h22.324219c12.328124 0 22.320312 9.996094 22.320312 22.324219v44.644531c0 12.324219-9.992188 22.320313-22.320312 22.320313zm0 0" fill="#9cb16a"/><path d="m104.167969.285156h59.527343c8.21875 0 14.882813 6.664063 14.882813 14.882813s-6.664063 14.882812-14.882813 14.882812h-59.527343c-8.21875 0-14.878907-6.664062-14.878907-14.882812s6.660157-14.882813 14.878907-14.882813zm0 0" fill="#649454"/><path d="m275.304688 89.574219h-7.441407v275.304687c0 16.4375-13.324219 29.761719-29.761719 29.761719h-200.898437v7.441406c0 16.4375 13.324219 29.761719 29.761719 29.761719h208.339844c16.4375 0 29.761718-13.324219 29.761718-29.761719v-282.746093c0-16.4375-13.324218-29.761719-29.761718-29.761719zm0 0" fill="#ff5e5b"/><path d="m267.863281 89.574219v275.304687c0 16.4375-13.324219 29.761719-29.761719 29.761719h-200.898437v7.441406c.015625 2.234375.285156 4.460938.804687 6.636719 2.175782.519531 4.402344.789062 6.636719.804688h208.339844c16.4375 0 29.761719-13.324219 29.761719-29.761719v-282.746094c-.015625-2.234375-.285156-4.464844-.804688-6.636719-2.175781-.519531-4.402344-.789062-6.636718-.804687zm0 0" fill="#eb120d"/><path d="m52.085938 134.21875h44.640624c8.222657 0 14.882813 6.664062 14.882813 14.882812v44.644532c0 8.21875-6.660156 14.878906-14.882813 14.878906h-44.640624c-8.21875 0-14.882813-6.660156-14.882813-14.878906v-44.644532c0-8.21875 6.664063-14.882812 14.882813-14.882812zm0 0" fill="#ff5e5b"/><g fill="#649454"><path d="m223.21875 149.097656h-44.644531c-4.105469 0-7.4375-3.328125-7.4375-7.4375s3.332031-7.441406 7.4375-7.441406h44.644531c4.109375 0 7.441406 3.332031 7.441406 7.441406s-3.332031 7.4375-7.441406 7.4375zm0 0"/><path d="m223.21875 178.863281h-74.40625c-4.109375 0-7.4375-3.332031-7.4375-7.441406s3.328125-7.441406 7.4375-7.441406h74.40625c4.109375 0 7.441406 3.332031 7.441406 7.441406s-3.332031 7.441406-7.441406 7.441406zm0 0"/><path d="m223.21875 216.066406h-74.40625c-4.109375 0-7.4375-3.332031-7.4375-7.441406s3.328125-7.441406 7.4375-7.441406h74.40625c4.109375 0 7.441406 3.332031 7.441406 7.441406s-3.332031 7.441406-7.441406 7.441406zm0 0"/><path d="m223.21875 253.269531h-171.132812c-4.109376 0-7.441407-3.332031-7.441407-7.441406s3.332031-7.441406 7.441407-7.441406h171.132812c4.109375 0 7.441406 3.332031 7.441406 7.441406s-3.332031 7.441406-7.441406 7.441406zm0 0"/><path d="m96.726562 283.03125h-44.640624c-4.109376 0-7.441407-3.332031-7.441407-7.441406s3.332031-7.4375 7.441407-7.4375h44.640624c4.109376 0 7.441407 3.328125 7.441407 7.4375s-3.328125 7.441406-7.441407 7.441406zm0 0"/><path d="m156.253906 312.792969h-104.167968c-4.109376 0-7.441407-3.328125-7.441407-7.4375s3.332031-7.441407 7.441407-7.441407h104.167968c4.109375 0 7.441406 3.332032 7.441406 7.441407s-3.332031 7.4375-7.441406 7.4375zm0 0"/><path d="m133.933594 342.558594h-37.207032c-4.105468 0-7.4375-3.332032-7.4375-7.441406 0-4.109376 3.332032-7.441407 7.4375-7.441407h37.207032c4.109375 0 7.4375 3.332031 7.4375 7.441407 0 4.109374-3.328125 7.441406-7.4375 7.441406zm0 0"/></g><path d="m349.710938 104.457031h44.644531c4.109375 0 7.441406 3.328125 7.441406 7.4375v208.339844c0 4.109375-3.332031 7.441406-7.441406 7.441406h-44.644531c-4.109376 0-7.4375-3.332031-7.4375-7.441406v-208.335937c-.003907-4.113282 3.328124-7.441407 7.4375-7.441407zm0 0" fill="#9cb16a"/><path d="m357.152344 320.234375v-208.335937c0-4.109376 3.332031-7.441407 7.441406-7.441407h-14.882812c-4.109376 0-7.441407 3.332031-7.441407 7.441407v208.335937c0 4.109375 3.332031 7.441406 7.441407 7.441406h14.882812c-4.109375 0-7.441406-3.332031-7.441406-7.441406zm0 0" fill="#649454"/><path d="m342.269531 141.660156h59.527344v29.761719h-59.527344zm0 0" fill="#649454"/><path d="m349.710938 327.675781h44.644531v29.761719c0 12.328125-9.992188 22.324219-22.320313 22.324219s-22.324218-9.996094-22.324218-22.324219zm0 0" fill="#9cb16a"/><path d="m364.59375 372.320312v-44.644531h-14.882812v29.761719c0 12.328125 9.992187 22.324219 22.320312 22.324219-4.105469 0-7.4375-3.332031-7.4375-7.441407zm0 0" fill="#649454"/><path d="m349.710938 327.675781h44.644531v7.441407h-44.644531zm0 0" fill="#649454"/><path d="m342.269531 134.21875h89.289063v29.761719h-89.289063c-4.109375 0-7.4375-3.332031-7.4375-7.441407v-14.878906c0-4.109375 3.328125-7.441406 7.4375-7.441406zm0 0" fill="#eb120d"/><path d="m364.59375 59.8125h14.878906c4.109375 0 7.441406 3.332031 7.441406 7.4375v37.207031h-29.761718v-37.203125c0-4.109375 3.332031-7.441406 7.441406-7.441406zm0 0" fill="#c2d197"/><path d="m357.152344 67.253906v37.203125h7.441406v-37.203125c0-4.109375 3.332031-7.441406 7.4375-7.441406h-7.4375c-4.109375 0-7.441406 3.332031-7.441406 7.441406zm0 0" fill="#9cb16a"/><path d="m372.035156 379.761719c-5.507812-.015625-10.816406-2.082031-14.882812-5.796875v20.675781c0 8.21875 6.664062 14.882813 14.882812 14.882813s14.878906-6.664063 14.878906-14.882813v-20.675781c-4.066406 3.714844-9.371093 5.78125-14.878906 5.796875zm0 0" fill="#eb120d"/><path d="m357.152344 373.964844v7.441406c8.417968 7.726562 21.347656 7.726562 29.761718 0v-7.441406c-8.414062 7.726562-21.34375 7.726562-29.761718 0zm0 0" fill="#9e0c09"/><path d="m364.59375 394.640625v-16.242187c-2.746094-.996094-5.269531-2.511719-7.441406-4.464844v20.707031c0 8.21875 6.664062 14.882813 14.882812 14.882813-4.109375 0-7.441406-6.660157-7.441406-14.882813zm0 0" fill="#9e0c09"/><path d="m416.679688 134.21875h14.878906v29.761719h-14.878906zm0 0" fill="#9e0c09"/><path d="m431.558594 260.710938c-4.109375 0-7.441406-3.332032-7.441406-7.441407v-119.050781c0-4.109375 3.332031-7.441406 7.441406-7.441406s7.441406 3.332031 7.441406 7.441406v119.050781c0 4.109375-3.332031 7.441407-7.441406 7.441407zm0 0" fill="#eb120d"/><path d="m342.269531 156.539062v-14.878906c0-4.109375 3.332031-7.441406 7.441407-7.441406h-7.441407c-4.109375 0-7.4375 3.332031-7.4375 7.441406v14.878906c0 4.109376 3.328125 7.441407 7.4375 7.441407h7.441407c-4.109376 0-7.441407-3.332031-7.441407-7.441407zm0 0" fill="#9e0c09"/></svg>